<?xml version="1.0" encoding="utf-8"?>
<!-- Generator: Adobe Illustrator 15.0.0, SVG Export Plug-In . SVG Version: 6.00 Build 0)  -->
<!DOCTYPE svg PUBLIC "-//W3C//DTD SVG 1.1//EN" "http://www.w3.org/Graphics/SVG/1.1/DTD/svg11.dtd">
<svg version="1.1" id="EPX" xmlns="http://www.w3.org/2000/svg" xmlns:xlink="http://www.w3.org/1999/xlink" x="0px" y="0px"
	 width="159.167px" height="51.333px" viewBox="0 0 159.167 51.333" enable-background="new 0 0 159.167 51.333"
	 xml:space="preserve">
<g>
	<g>
		<g>
			<g>
				<path fill="#6D7881" d="M97.377,38.213H82.065V21.885h2.707v13.89h12.605V38.213z"/>
				<path fill="#6D7881" d="M116.593,38.213h-2.982l-1.594-2.978h-9.318l-1.598,2.978h-2.979l7.555-13.871h3.361L116.593,38.213z
					 M110.663,32.8l-3.292-6.144l-3.323,6.144H110.663z"/>
				<path fill="#6D7881" d="M133.751,31.042c1.473,0.749,2.21,1.893,2.21,3.425c0,2.497-1.812,3.747-5.436,3.747h-11.271V24.343
					h11.409c1.472,0,2.631,0.352,3.472,1.059c0.841,0.708,1.262,1.641,1.262,2.799C135.396,29.37,134.845,30.318,133.751,31.042z
					 M130.705,29.979c0.631,0,1.132-0.146,1.503-0.44c0.367-0.294,0.551-0.692,0.551-1.192c0-1.044-0.654-1.568-1.962-1.568h-8.836
					v3.2H130.705z M130.525,35.774c0.857,0,1.522-0.142,1.996-0.433c0.475-0.29,0.711-0.676,0.711-1.166
					c0-1.174-0.826-1.759-2.481-1.759h-8.791v3.357H130.525z"/>
				<path fill="#6D7881" d="M152.467,27.768c-1.806-0.944-3.766-1.418-5.885-1.418c-3.082,0-4.626,0.547-4.626,1.647
					c0,0.646,0.582,1.066,1.74,1.262c1.578,0.133,3.153,0.279,4.731,0.428c2.272,0.226,3.89,0.631,4.854,1.216
					c1.065,0.65,1.597,1.633,1.597,2.955c0,1.488-0.665,2.639-1.994,3.453c-1.331,0.811-3.259,1.216-5.786,1.216
					c-3.56,0-6.412-0.81-8.545-2.435l1.465-1.916c1.911,1.338,4.255,2.007,7.038,2.007c1.56,0,2.771-0.203,3.628-0.601
					c0.857-0.397,1.285-0.925,1.285-1.591c0-0.733-0.524-1.253-1.579-1.551c-0.586-0.168-1.495-0.28-2.728-0.341
					c-1.921-0.088-3.103-0.156-3.539-0.203c-1.716-0.165-2.979-0.536-3.789-1.104c-0.811-0.57-1.22-1.407-1.22-2.504
					c0-1.323,0.654-2.371,1.953-3.143c1.301-0.777,3.12-1.162,5.469-1.162c3.127,0,5.658,0.676,7.601,2.026L152.467,27.768z"/>
			</g>
		</g>
		<path d="M22.024,38.213H4.927V21.885h16.462v2.435H7.633v4.194h9.562v2.436H7.633v4.825h14.391V38.213z"/>
		<path d="M39.046,21.885c1.67,0,2.993,0.462,3.972,1.387c0.975,0.926,1.464,2.161,1.464,3.709c0,1.625-0.508,2.864-1.521,3.724
			c-1.017,0.856-2.493,1.285-4.431,1.285h-9.719v6.224h-2.707V21.885H39.046z M38.575,29.554c2.087,0,3.131-0.845,3.131-2.527
			c0-1.804-1.101-2.707-3.311-2.707h-9.585v5.234H38.575z"/>
		<path fill="#44ABE0" d="M51.494,24.366"/>
	</g>
	<g>
		<polygon fill="#44ADE2" points="55.249,31.607 55.34,31.694 55.249,31.603 		"/>
		<path fill="#44ADE2" d="M57.481,30.364c-0.153-0.152-0.295-0.294-0.455-0.455l8.018-8.024H61.53l-6.254,6.346l1.755,1.687
			L57.481,30.364z"/>
		<path fill="#44ADE2" d="M79.415,39.139c-0.195-0.631-1.712-4.152-3.082-6.117c-0.577-0.83-1.131-1.384-1.541-1.316
			c-0.092,0.016-0.168,0.042-0.229,0.084l0,0c-0.692,0.489,0.439,2.672,1.059,4.198c0.149,0.359,0.264,0.688,0.326,0.94
			c0,0.011,0,0.023,0.003,0.035c0,0.004,0.004,0.004,0.004,0.008l0,0c0,0.003,0,0.011,0,0.015c0.004,0.004,0.004,0.007,0.004,0.011
			c0,0.004,0,0.008,0,0.008c0.004,0,0.004,0.003,0.004,0.003s0,0,0,0.004c0.003,0.019,0.007,0.042,0.007,0.061
			c0.004,0.008,0.004,0.02,0.004,0.023s0.003,0.004,0.003,0.004c0,0.008,0,0.015,0,0.02c0,0.003,0.016,0.363,0.016,0.367
			c0.084,0.879-0.244,2.202-1.189,3.009c-0.003,0.004-0.003,0.007-0.007,0.007c-0.111,0.096-0.222,0.18-0.337,0.26l0,0
			c-3.131,2.183-6.267,0.08-9.551-3.008l0.451,0.451h-3.517c3.314,3.314,7.088,8.021,10.491,9.107
			c0.003,0.004,0.007,0.004,0.011,0.004c1.736,0.551,3.946,0.344,5.521-0.754l0,0l0,0c0.283-0.194,0.543-0.42,0.777-0.673
			c0.233-0.252,0.439-0.534,0.615-0.848c0,0,0.004-0.004,0.004-0.009C79.905,43.88,80.069,41.276,79.415,39.139z"/>
		<path fill="#44ADE2" d="M48.978,21.876c-3.853-3.888-7.868-7.893-10.781-10.537c-3.518-3.2-7.012-6.649-10.224-7.238
			c-0.003,0-0.007,0-0.012-0.003c-1.579-0.287-2.802-0.042-3.7,0.585l0,0c-3.652,2.546-3.097,8.604,1.472,13.45
			c0,0,0.061,0.069,0.069,0.076c0.115,0.077,0.55,0.046,0.669-0.038l0,0l0,0c0.574-0.401-0.015-1.132-0.256-1.812
			c0-0.003,0-0.003,0-0.007l0,0c-0.004-0.004-0.004-0.008-0.004-0.008c-0.971-2.831-0.37-3.148,0.073-4.194
			c0.004-0.007,0.096-0.172,0.1-0.18c0,0,0.795-0.971,1.254-1.292l0,0l0,0c2.259-1.571,5.436,0.566,7.875,2.43
			c0,0.004,0.004,0.008,0.007,0.008c0,0,0,0,0.004,0.003c0.011,0.008,0.02,0.016,0.031,0.023c0.004,0.004,0.004,0.004,0.008,0.008
			c0.004,0,0.004,0,0.004,0.003c0.007,0,0.007,0.004,0.016,0.008c1.804,1.388,4.434,3.504,6.308,5.206
			c1.335,1.212,6.324,6.332,11.516,11.496l0.1,0.069l-8.036-8.056H48.978z"/>
		<polygon points="64.91,37.755 57.481,30.364 57.03,29.917 55.275,28.23 48.99,21.876 48.978,21.876 45.469,21.876 53.505,29.933 
			45.178,38.206 48.691,38.206 55.249,31.607 55.249,31.603 55.34,31.694 61.844,38.206 65.361,38.206 		"/>
	</g>
</g>
</svg>
